HIERARCHY
ROOT Hips
{
	OFFSET -0.001795 -0.223333 0.028219
	CHANNELS 6 Xposition Yposition Zposition Zrotation Yrotation Xrotation 
	JOINT LeftUpLeg
	{
		OFFSET 0.069520 -0.091406 -0.006815
		CHANNELS 3 Zrotation Yrotation Xrotation
		JOINT LeftLeg
		{
			OFFSET 0.034277 -0.375199 -0.004496
			CHANNELS 3 Zrotation Yrotation Xrotation
			JOINT LeftFoot
			{
				OFFSET -0.013596 -0.397961 -0.043693
				CHANNELS 3 Zrotation Yrotation Xrotation
				JOINT LeftToe
				{
					OFFSET 0.026358 -0.055791 0.119288
					CHANNELS 3 Zrotation Yrotation Xrotation
					End Site
					{
						OFFSET 0.000000 0.000000 0.000000
					}
				}
			}
		}
	}
	JOINT RightUpLeg
	{
		OFFSET -0.067670 -0.090522 -0.004320
		CHANNELS 3 Zrotation Yrotation Xrotation
		JOINT RightLeg
		{
			OFFSET -0.038290 -0.382569 -0.008850
			CHANNELS 3 Zrotation Yrotation Xrotation
			JOINT RightFoot
			{
				OFFSET 0.015774 -0.398415 -0.042312
				CHANNELS 3 Zrotation Yrotation Xrotation
				JOINT RightToe
				{
					OFFSET -0.025372 -0.048144 0.123348
					CHANNELS 3 Zrotation Yrotation Xrotation
					End Site
					{
						OFFSET 0.000000 0.000000 0.000000
					}
				}
			}
		}
	}
	JOINT Spine
	{
		OFFSET -0.002533 0.108963 -0.026696
		CHANNELS 3 Zrotation Yrotation Xrotation
		JOINT Spine1
		{
			OFFSET 0.005487 0.135180 0.001092
			CHANNELS 3 Zrotation Yrotation Xrotation
			JOINT Spine2
			{
				OFFSET 0.001457 0.052922 0.025425
				CHANNELS 3 Zrotation Yrotation Xrotation
				JOINT Neck
				{
					OFFSET -0.002778 0.213870 -0.042857
					CHANNELS 3 Zrotation Yrotation Xrotation
					JOINT Head
					{
						OFFSET 0.005152 0.064970 0.051349
						CHANNELS 3 Zrotation Yrotation Xrotation
						End Site
						{
							OFFSET 0.000000 0.000000 0.000000
						}
					}
				}
				JOINT LeftShoulder
				{
					OFFSET 0.078845 0.121749 -0.034090
					CHANNELS 3 Zrotation Yrotation Xrotation
					JOINT LeftArm
					{
						OFFSET 0.090977 0.030469 -0.008868
						CHANNELS 3 Zrotation Yrotation Xrotation
						JOINT LeftForeArm
						{
							OFFSET 0.259612 -0.012772 -0.027456
							CHANNELS 3 Zrotation Yrotation Xrotation
							JOINT LeftHand
							{
								OFFSET 0.249234 0.008986 -0.001171
								CHANNELS 3 Zrotation Yrotation Xrotation
								End Site
								{
									OFFSET 0.000000 0.000000 0.000000
								}
							}
						}
					}
				}
				JOINT RightShoulder
				{
					OFFSET -0.081759 0.118833 -0.038615
					CHANNELS 3 Zrotation Yrotation Xrotation
					JOINT RightArm
					{
						OFFSET -0.096012 0.032551 -0.009143
						CHANNELS 3 Zrotation Yrotation Xrotation
						JOINT RightForeArm
						{
							OFFSET -0.253742 -0.013329 -0.021401
							CHANNELS 3 Zrotation Yrotation Xrotation
							JOINT RightHand
							{
								OFFSET -0.255298 0.007772 -0.005559
								CHANNELS 3 Zrotation Yrotation Xrotation
								End Site
								{
									OFFSET 0.000000 0.000000 0.000000
								}
							}
						}
					}
				}
			}
		}
	}
}
MOTION
Frames: 15
Frame Time: 0.050000
0.000000 0.952751 0.000000 -0.214811 -6.656039 -1.480090 2.048732 0.115392 1.312987 0.218279 -0.035924 0.277042 0.790682 4.363799 8.848737 0.000000 0.000000 0.000000 -1.604713 0.034874 0.237327 -1.243670 0.157774 0.770372 2.750349 0.906952 9.002895 0.000000 0.000000 0.000000 4.074885 -0.136447 1.685883 -2.539955 1.195110 -1.378416 -2.613246 5.523918 7.784266 7.297501 -4.087666 -10.405414 0.000000 0.000000 0.000000 -14.705454 -13.243452 4.689174 -56.244664 -8.779446 -2.929401 -6.522777 -17.872160 1.641261 0.000000 0.000000 0.000000 15.151303 8.186525 3.297299 60.919317 7.676621 -2.357849 7.795232 19.158599 1.875722 0.000000 0.000000 0.000000 
0.000052 0.952833 -0.000043 -0.056944 -7.459988 -1.623455 2.080907 0.156144 1.751791 0.399881 -0.026974 -0.650715 0.361836 3.761421 9.733939 0.000000 0.000000 0.000000 -1.527741 0.032559 0.265235 -1.804705 0.214148 0.795184 2.992616 1.262602 9.069834 0.000000 0.000000 0.000000 4.139722 -0.135079 1.688187 -2.509119 1.187891 -0.925495 -3.123426 6.314238 7.203864 7.651951 -4.305562 -10.246227 0.000000 0.000000 0.000000 -14.035249 -13.155130 4.514510 -57.010482 -8.445455 -3.080614 -6.201510 -16.792073 1.479823 0.000000 0.000000 0.000000 14.769507 8.313150 3.437537 61.718368 7.990018 -2.129901 7.481217 18.624194 1.776709 0.000000 0.000000 0.000000 
0.000012 0.952305 -0.000022 -0.237623 -7.288872 -1.217458 2.496796 0.128194 1.477514 0.285207 -0.012988 -0.655300 0.466917 3.813405 9.176187 0.000000 0.000000 0.000000 -1.378215 0.048095 0.009244 -1.388863 0.205533 1.396024 2.544211 0.744634 8.395224 0.000000 0.000000 0.000000 3.924448 -0.109809 1.311134 -2.154764 1.005804 -1.628426 -3.100290 6.336947 7.681757 7.388671 -4.076269 -10.523058 0.000000 0.000000 0.000000 -15.093975 -12.639200 4.269609 -56.879265 -8.578102 -3.032032 -5.359715 -16.135967 1.306264 0.000000 0.000000 0.000000 15.232950 7.770413 3.210275 62.211632 7.890765 -2.244199 6.613898 19.180710 1.718527 0.000000 0.000000 0.000000 
0.000017 0.952278 0.000060 -0.260787 -7.010903 -1.417725 2.453372 0.176079 2.097974 0.481159 -0.007914 -1.414958 0.555790 3.953612 8.998920 0.000000 0.000000 0.000000 -1.167801 -0.001557 0.502856 -2.139818 0.251455 0.820058 2.700855 1.285195 8.080649 0.000000 0.000000 0.000000 4.039989 -0.064336 0.731547 -1.938329 0.923995 -0.531529 -3.613554 6.824039 6.992923 7.802322 -4.355654 -10.142531 0.000000 0.000000 0.000000 -13.975882 -13.741678 4.606502 -57.593938 -8.433362 -3.091937 -5.144756 -16.049579 1.251920 0.000000 0.000000 0.000000 14.810873 8.236273 3.585284 62.454084 7.815837 -2.193221 6.589355 19.392977 1.747712 0.000000 0.000000 0.000000 
0.000055 0.951989 0.000120 -0.386436 -6.872015 -1.256907 2.426527 0.173112 2.084937 0.493082 -0.001203 -1.621928 1.004765 4.729799 8.868841 0.000000 0.000000 0.000000 -0.944248 -0.016298 0.573371 -2.219476 0.235659 0.424246 2.735415 1.337898 8.144606 0.000000 0.000000 0.000000 4.014043 -0.046794 0.474878 -1.820905 0.863757 -0.810466 -3.594077 7.118512 7.574726 7.720583 -4.217584 -10.502266 0.000000 0.000000 0.000000 -14.169087 -13.962503 4.661473 -56.923492 -8.820257 -2.912641 -5.606575 -16.229290 1.326557 0.000000 0.000000 0.000000 15.164967 8.126376 3.633796 62.453213 8.043717 -2.131604 6.172581 19.720340 1.730128 0.000000 0.000000 0.000000 
0.000045 0.952023 0.000068 -0.366590 -7.159888 -1.516175 2.246856 0.201883 2.371764 0.985886 -0.038169 -2.027805 0.895802 4.547198 9.016807 0.000000 0.000000 0.000000 -0.812829 -0.075026 1.207694 -2.557393 0.217356 -0.377908 2.887096 1.453400 8.428797 0.000000 0.000000 0.000000 3.918514 -0.072654 0.869393 -1.936601 0.923950 -0.473539 -3.583691 7.437843 6.878855 8.038694 -4.415133 -10.461822 0.000000 0.000000 0.000000 -13.932987 -14.010529 4.616530 -56.842398 -8.389218 -3.052463 -6.214642 -17.156920 1.482245 0.000000 0.000000 0.000000 15.142507 8.427992 3.812747 62.231967 8.085434 -2.041096 5.998401 19.839673 1.713346 0.000000 0.000000 0.000000 
0.000024 0.951858 0.000062 -0.447053 -6.968818 -1.072964 2.193477 0.161316 1.910286 1.180865 -0.055866 -2.073744 0.961776 4.664041 8.966169 0.000000 0.000000 0.000000 -0.689339 -0.054806 0.907273 -2.609231 0.194129 -0.827053 3.130905 1.824552 8.707887 0.000000 0.000000 0.000000 3.946634 -0.036778 0.316882 -1.934073 0.921934 -0.523202 -3.541306 7.594501 6.890419 8.075245 -4.439121 -10.357295 0.000000 0.000000 0.000000 -13.469065 -13.667820 4.406181 -56.798405 -8.238512 -3.130110 -6.441456 -18.072718 1.589313 0.000000 0.000000 0.000000 14.934411 8.098646 3.690571 62.280353 8.089551 -2.020369 6.389227 20.272664 1.830732 0.000000 0.000000 0.000000 
0.000016 0.951820 0.000061 -0.428978 -6.259316 -0.682694 2.246342 0.134995 1.673974 1.023744 -0.015332 -2.587525 0.944276 4.788712 9.317164 0.000000 0.000000 0.000000 -0.716231 -0.036206 0.690188 -2.661918 0.185174 -1.090552 3.265329 2.035242 8.984295 0.000000 0.000000 0.000000 3.901548 -0.032040 0.184439 -1.842623 0.879891 -0.480819 -3.638973 7.467913 6.426344 7.836650 -4.213018 -10.461314 0.000000 0.000000 0.000000 -12.454525 -13.114442 4.085671 -57.628680 -8.178865 -3.191136 -6.990004 -20.691488 1.897890 0.000000 0.000000 0.000000 14.191540 7.777575 3.544482 62.829552 7.902261 -2.028586 6.285196 20.551785 1.851987 0.000000 0.000000 0.000000 
-0.000128 0.951958 -0.000057 -0.529346 -5.841093 -0.521914 2.403597 0.116734 1.508068 1.163196 -0.024625 -2.657861 0.775762 4.550022 9.381269 0.000000 0.000000 0.000000 -0.905535 -0.030595 0.701785 -2.241234 0.123841 -1.532800 3.226497 1.842229 9.277401 0.000000 0.000000 0.000000 4.255933 -0.041210 0.253219 -1.841953 0.879789 -0.515531 -3.990535 8.073686 5.995988 8.078284 -4.253791 -10.675427 0.000000 0.000000 0.000000 -11.237001 -13.325636 4.027567 -55.511846 -9.625650 -2.361602 -5.578928 -24.688171 1.896156 0.000000 0.000000 0.000000 13.915681 7.671907 3.655057 62.310979 7.636796 -2.096628 6.557604 20.642408 1.927131 0.000000 0.000000 0.000000 
-0.000635 0.951795 -0.000445 -0.787902 -4.473868 -0.228985 2.551443 0.071375 1.064254 1.424603 -0.045488 -2.657404 0.337075 3.940663 9.458899 0.000000 0.000000 0.000000 -0.364813 -0.035568 0.504336 -2.310356 0.126321 -1.678508 2.770963 1.062984 9.307803 0.000000 0.000000 0.000000 4.314280 -0.016589 -0.128018 -1.410029 0.676876 -0.330691 -4.379990 8.073305 5.979908 7.859621 -4.068361 -10.500519 0.000000 0.000000 0.000000 -9.296356 -13.845825 4.178708 -52.484731 -13.312485 -0.637236 -0.985995 -33.090421 1.056015 0.000000 0.000000 0.000000 13.238777 7.603034 3.740333 62.778303 7.075904 -2.328113 7.504663 21.698288 2.240932 0.000000 0.000000 0.000000 
-0.001562 0.951717 -0.000829 -1.021390 -3.478389 0.321865 2.767147 -0.008215 0.113753 1.692222 -0.085798 -2.271347 -0.119034 3.236997 9.447656 0.000000 0.000000 0.000000 -0.011769 0.019316 -0.196856 -2.119943 0.136643 -1.281326 2.308389 0.185826 9.414729 0.000000 0.000000 0.000000 4.445499 0.041961 -0.973820 -1.130394 0.545146 -0.645826 -4.776478 8.471226 6.352497 7.815809 -3.915318 -10.728339 0.000000 0.000000 0.000000 -6.488856 -14.188572 4.299178 -47.602636 -18.528597 1.349802 11.356629 -42.862796 -3.796334 0.000000 0.000000 0.000000 12.620812 7.292163 3.734370 63.117089 6.027373 -2.842395 8.614575 21.899073 2.497785 0.000000 0.000000 0.000000 
-0.002603 0.951666 -0.000915 -1.075610 -3.493688 0.074698 2.925157 0.015733 0.448896 1.645887 -0.080698 -2.289422 -0.290279 3.000691 9.637331 0.000000 0.000000 0.000000 0.202700 -0.003236 -0.028509 -2.190132 0.161738 -0.966900 2.059949 -0.253610 9.267295 0.000000 0.000000 0.000000 4.461430 0.053137 -1.064034 -1.246613 0.600174 -0.555507 -4.806837 9.086371 6.399532 6.793032 -3.321914 -9.852398 0.000000 0.000000 0.000000 -4.061674 -14.755657 4.550331 -40.942814 -25.063782 3.136916 31.588990 -43.939823 -12.698232 0.000000 0.000000 0.000000 12.012534 7.335582 3.812246 63.107647 5.831652 -2.892247 9.157677 22.584994 2.717990 0.000000 0.000000 0.000000 
-0.003507 0.951288 -0.000711 -1.138122 -2.693121 -0.068615 3.182368 -0.006619 0.206189 1.470197 -0.085796 -1.776174 -0.344347 2.783145 9.006207 0.000000 0.000000 0.000000 0.180321 -0.003368 -0.016580 -1.959570 0.185325 -0.236903 1.784883 -0.476049 8.763258 0.000000 0.000000 0.000000 4.312429 0.036609 -0.853204 -1.004897 0.485380 -0.346220 -5.205673 9.101192 5.745999 6.097967 -2.982784 -8.828977 0.000000 0.000000 0.000000 -1.235755 -15.484501 4.870629 -34.733276 -31.133794 4.019205 50.899550 -37.728303 -18.804984 0.000000 0.000000 0.000000 12.702654 7.195670 3.897706 62.379033 5.176749 -3.206272 10.094946 23.901509 3.116472 0.000000 0.000000 0.000000 
-0.004031 0.951391 -0.000261 -1.352180 -2.694751 -0.342723 3.384231 0.020115 0.611952 1.085446 -0.058876 -1.524519 0.211484 3.647109 8.631273 0.000000 0.000000 0.000000 0.498429 -0.014364 0.010427 -2.005430 0.228723 0.424015 1.885329 -0.047600 8.320285 0.000000 0.000000 0.000000 4.313088 0.002594 -0.372566 -0.793625 0.383735 -0.236456 -5.206155 8.874945 5.284119 5.133145 -2.390123 -8.365335 0.000000 0.000000 0.000000 1.505977 -16.181786 5.189480 -26.750877 -36.545952 3.594014 61.050362 -27.285405 -17.132095 0.000000 0.000000 0.000000 12.616140 7.460177 3.966874 61.419512 5.088737 -3.200424 10.112920 24.658613 3.222071 0.000000 0.000000 0.000000 
-0.004145 0.951586 0.000356 -1.276906 -3.021808 0.072127 3.233648 -0.019876 -0.006860 0.867458 -0.062418 -0.917756 0.730037 4.321185 7.942698 0.000000 0.000000 0.000000 0.452826 0.076853 -0.879667 -1.884258 0.270870 1.401722 1.766793 -0.111511 7.871662 0.000000 0.000000 0.000000 3.906718 0.025033 -0.729067 -0.614085 0.298539 -0.342124 -5.052521 8.941760 5.025827 4.563665 -1.895758 -8.907026 0.000000 0.000000 0.000000 4.482117 -16.484705 5.349064 -19.446780 -40.883471 2.302493 66.502996 -19.147428 -13.874729 0.000000 0.000000 0.000000 13.271463 7.946406 4.243407 60.659208 4.488810 -3.520355 10.528342 25.548917 3.435704 0.000000 0.000000 0.000000 
